<?xml version="1.0" standalone="no"?>
<!DOCTYPE svg PUBLIC "-//W3C//DTD SVG 20010904//EN"
 "http://www.w3.org/TR/2001/REC-SVG-20010904/DTD/svg10.dtd">
<svg version="1.0" xmlns="http://www.w3.org/2000/svg"
 width="512.000000pt" height="512.000000pt" viewBox="0 0 512.000000 512.000000"
 preserveAspectRatio="xMidYMid meet">
<metadata>
Created by potrace 1.14, written by Peter Selinger 2001-2017
</metadata>
<g transform="translate(0.000000,512.000000) scale(0.100000,-0.100000)"
fill="#000000" stroke="none">
<path d="M3765 5027 c-43 -11 -145 -104 -145 -131 0 -14 -39 -16 -347 -16
l-348 0 -182 -182 -183 -183 -183 183 -182 182 -355 0 -355 0 -240 -240 c-217
-217 -243 -240 -273 -240 -74 0 -125 -22 -179 -76 -29 -29 -53 -60 -53 -68 0
-13 -13 -16 -68 -16 l-67 0 -263 -263 -262 -262 0 -475 0 -475 90 -90 c71 -70
90 -94 85 -110 -14 -48 -16 -116 -5 -150 l12 -37 -91 -92 -91 -91 0 -355 0
-355 223 -223 222 -222 106 0 107 0 12 -30 c14 -34 95 -110 116 -110 11 0 14
-30 14 -148 l0 -147 263 -263 262 -262 355 0 355 0 222 222 223 223 223 -223
222 -222 355 0 355 0 263 263 262 262 0 146 0 147 30 12 c34 14 110 95 110
116 0 11 24 14 107 14 l108 0 222 222 223 223 0 355 0 355 -90 90 c-71 70 -90
94 -85 110 14 48 16 116 5 150 l-12 37 91 92 91 91 0 475 0 475 -263 263 -262
262 -68 0 c-54 0 -67 3 -67 16 0 8 -24 39 -53 68 -42 42 -63 56 -106 66 -100
24 -197 -10 -252 -89 -85 -120 -55 -266 72 -347 36 -22 39 -28 39 -69 l0 -45
-223 0 -222 0 -109 109 c-109 109 -109 109 -97 141 50 144 -73 310 -229 310
-118 0 -225 -96 -237 -213 -18 -178 142 -303 322 -252 16 5 48 -22 150 -125
l130 -130 257 0 258 0 0 -63 0 -62 -138 -138 c-118 -117 -142 -137 -168 -137
-26 0 -34 6 -44 30 -20 48 -93 106 -151 120 -174 42 -330 -110 -290 -282 l12
-52 -42 -41 c-26 -25 -43 -35 -46 -28 -3 7 -26 46 -52 85 -84 129 -200 223
-345 279 -98 38 -141 44 -281 43 -128 -2 -228 -29 -334 -91 -111 -66 -247
-209 -280 -296 -6 -15 -14 -27 -19 -27 -4 0 -25 17 -46 39 -36 37 -37 40 -27
77 45 163 -86 318 -254 301 -78 -8 -170 -75 -190 -137 -5 -15 -15 -20 -38 -20
-28 0 -50 18 -170 138 l-137 137 0 192 c0 183 1 192 20 198 31 10 79 54 108
99 36 55 38 159 4 226 l-22 44 202 203 203 203 285 0 285 0 177 -177 178 -178
0 -165 0 -166 -58 -57 -58 -57 -67 0 c-67 0 -67 0 -91 38 -82 130 -232 159
-353 68 -150 -112 -105 -360 75 -412 61 -18 130 -13 180 11 35 18 97 84 107
114 6 20 13 21 113 21 l107 0 103 103 102 102 0 200 0 200 177 177 178 178
307 0 308 0 24 -39 c74 -117 215 -154 327 -86 134 81 158 262 48 372 -64 65
-147 86 -244 60z m131 -168 c19 -15 28 -73 15 -97 -5 -10 -24 -25 -41 -32 -71
-30 -137 49 -95 113 9 14 24 28 33 31 24 6 72 -2 88 -15z m-2880 -640 c39 -32
17 -123 -32 -135 -43 -11 -92 19 -99 60 -7 37 14 81 43 90 23 6 72 -2 88 -15z
m2241 -2 c8 -7 16 -29 19 -49 7 -40 -16 -73 -59 -83 -79 -20 -126 76 -66 136
17 17 29 20 57 15 20 -3 42 -11 49 -19z m938 13 c30 -11 48 -53 40 -91 -15
-67 -112 -77 -142 -15 -20 43 -11 81 25 100 33 18 43 19 77 6z m-3455 -164 c0
-21 76 -102 110 -116 l30 -12 0 -227 0 -226 182 -182 183 -183 66 0 c65 0 67
-1 79 -30 38 -93 181 -153 280 -119 32 12 33 11 103 -59 l70 -70 2 -129 c2
-108 6 -141 28 -208 33 -100 86 -191 155 -266 l52 -57 0 -147 c0 -85 5 -164
12 -187 6 -22 32 -62 56 -89 55 -61 109 -79 239 -79 l93 0 0 -89 c0 -81 -2
-90 -20 -96 -58 -18 -127 -109 -136 -179 -11 -78 12 -143 72 -203 29 -29 60
-53 68 -53 14 0 16 -24 16 -192 l0 -193 -217 -217 -218 -218 -285 0 -285 0
-217 217 -218 218 0 112 c0 103 2 112 20 118 61 19 127 110 136 185 17 155
-112 285 -266 267 -74 -9 -166 -77 -185 -137 -6 -18 -15 -20 -78 -20 l-72 0
-178 178 -177 177 0 285 0 286 68 67 67 67 58 -12 c45 -10 67 -9 104 0 l47 13
131 -131 130 -130 106 0 107 0 12 -30 c17 -42 90 -104 138 -118 107 -32 215
10 278 110 55 86 38 210 -38 285 -93 91 -226 96 -322 12 -24 -21 -49 -52 -56
-69 -12 -29 -14 -30 -84 -30 l-71 0 -109 109 -108 108 11 39 c15 52 14 81 -4
141 -36 121 -189 194 -308 147 -14 -5 -35 9 -88 62 l-69 68 0 406 0 405 217
217 c195 195 221 218 250 218 21 0 33 -5 33 -14z m3922 -203 l218 -218 0 -405
0 -406 -68 -67 -67 -67 -58 12 c-171 36 -323 -123 -277 -291 l12 -44 -109
-109 -108 -108 -72 0 c-60 0 -73 3 -73 16 0 8 -24 39 -53 68 -102 102 -231
103 -333 1 -98 -97 -99 -236 -2 -334 74 -75 200 -91 286 -37 43 27 87 75 97
106 6 18 15 20 113 20 l107 0 130 130 131 131 47 -13 c37 -9 59 -10 104 0 l58
12 67 -67 68 -67 0 -286 0 -285 -177 -177 -178 -178 -67 0 c-68 0 -68 0 -92
39 -71 112 -204 151 -316 92 -137 -71 -171 -249 -69 -364 21 -24 52 -50 69
-57 l30 -12 0 -112 0 -111 -217 -217 -218 -218 -285 0 -285 0 -217 217 -218
218 0 191 0 192 30 12 c65 27 130 129 130 204 0 85 -62 188 -130 216 l-30 12
0 88 0 88 118 4 c113 3 119 4 168 37 28 19 63 54 80 80 28 45 29 48 32 215 l4
170 58 64 c116 127 180 300 176 484 l-2 107 72 72 72 71 36 -12 c52 -17 137
-6 184 24 43 27 87 75 97 106 6 17 15 20 73 20 l67 0 182 182 183 183 0 227
c0 186 3 228 14 228 21 0 102 76 116 110 10 24 18 30 44 30 27 0 58 -27 248
-217z m-2629 48 c29 -11 52 -61 43 -96 -9 -35 -64 -61 -102 -48 -56 19 -68 99
-21 135 25 20 45 22 80 9z m-398 -641 c30 -11 48 -53 40 -91 -15 -67 -112 -77
-142 -15 -20 43 -11 81 25 100 33 18 43 19 77 6z m1080 -11 c76 -21 177 -82
239 -144 201 -201 219 -516 44 -740 l-43 -55 -157 0 -158 0 0 89 c0 81 2 90
20 96 11 4 34 18 51 32 108 91 117 237 22 343 -170 189 -474 12 -401 -234 13
-45 105 -146 132 -146 13 0 16 -15 16 -90 l0 -90 -155 0 c-177 0 -167 -5 -235
101 -75 116 -106 281 -79 414 44 207 237 398 439 434 64 12 208 6 265 -10z
m838 12 c29 -11 52 -61 43 -96 -9 -35 -64 -61 -102 -48 -56 19 -68 99 -21 135
25 20 45 22 80 9z m-935 -494 c7 -8 15 -29 18 -49 5 -28 2 -40 -15 -57 -62
-62 -158 -10 -137 74 12 48 97 68 134 32z m-2082 -238 c38 -31 17 -123 -30
-135 -26 -6 -63 2 -83 18 -16 13 -26 63 -18 88 14 43 93 61 131 29z m4132 15
c30 -9 55 -58 47 -94 -15 -66 -110 -79 -141 -18 -19 37 -12 76 19 100 24 19
39 21 75 12z m-3348 -409 c59 -30 45 -126 -20 -140 -70 -15 -124 60 -85 118
24 38 60 45 105 22z m1560 -110 c0 -138 -12 -180 -53 -190 -12 -3 -140 -5
-284 -3 -236 3 -264 5 -280 21 -15 15 -19 39 -21 157 l-4 140 321 0 321 0 0
-125z m1015 105 c39 -32 19 -124 -30 -136 -84 -21 -136 75 -74 137 17 17 29
20 56 16 19 -3 41 -11 48 -17z m-1295 -795 c59 -31 45 -126 -20 -140 -86 -19
-138 98 -62 139 35 19 46 19 82 1z m-1600 -160 c59 -31 45 -126 -20 -140 -86
-19 -138 98 -62 139 35 19 46 19 82 1z m3188 9 c30 -9 55 -58 47 -94 -15 -66
-110 -79 -141 -18 -19 37 -12 76 19 100 24 19 39 21 75 12z"/>
<path d="M1860 1674 c-80 -32 -120 -64 -151 -124 -46 -87 -33 -190 32 -263 21
-24 52 -50 69 -57 24 -10 30 -18 30 -44 0 -26 -13 -44 -69 -100 l-69 -68 -37
12 c-93 31 -212 -16 -269 -106 -79 -125 -13 -307 127 -349 100 -30 171 -12
242 59 70 70 92 154 64 235 -12 33 -11 34 80 125 l91 91 0 66 c0 65 1 67 30
79 44 18 105 92 120 145 14 51 7 128 -15 171 -20 40 -70 90 -108 109 -33 17
-141 29 -167 19z m88 -160 c30 -9 55 -58 47 -94 -15 -66 -110 -79 -141 -18
-19 37 -12 76 19 100 24 19 39 21 75 12z m-292 -655 c19 -15 28 -73 15 -97 -5
-10 -24 -25 -41 -32 -71 -30 -137 49 -95 113 9 14 24 28 33 31 24 6 72 -2 88
-15z"/>
<path d="M3135 1673 c-11 -2 -41 -19 -66 -36 -91 -60 -128 -165 -97 -271 13
-45 105 -146 132 -146 14 0 16 -16 16 -99 0 -91 -2 -100 -20 -106 -31 -10 -79
-54 -106 -97 -70 -111 -20 -275 102 -333 183 -87 382 76 334 274 -14 58 -72
131 -120 151 l-30 12 0 98 0 98 30 12 c17 7 48 32 69 56 84 95 79 231 -11 323
-57 57 -151 83 -233 64z m121 -174 c38 -31 17 -123 -30 -135 -26 -6 -63 2 -83
18 -16 13 -26 63 -18 88 14 43 93 61 131 29z m-16 -634 c59 -30 45 -126 -20
-140 -70 -15 -124 60 -85 118 24 38 60 45 105 22z"/>
</g>
</svg>
